<svg xmlns="http://www.w3.org/2000/svg" width="960" height="540" viewBox="0 0 960 540">
<rect width="100%" height="100%" fill="#0f172a"/>
<text x="60" y="28" fill="#e2e8f0" font-family="monospace" font-size="20">Routing miss sweep</text>
<text x="60" y="48" fill="#94a3b8" font-family="monospace" font-size="12">best route_count=1 mean_time_ns=24.203</text>
<line x1="60" y1="480" x2="900" y2="480" stroke="#334155"/>
<line x1="60" y1="60" x2="60" y2="480" stroke="#334155"/>
<polyline fill="none" stroke="#38bdf8" stroke-width="3" points="60.0,480.0 60.8,460.1 62.5,449.0 65.7,376.9 72.3,323.6 85.5,229.8 111.7,188.5 164.3,60.0 269.4,319.2 479.6,312.2 900.0,318.0"/>
<circle cx="60.0" cy="480.0" r="4" fill="#f59e0b"/>
<text x="68.0" y="472.0" fill="#cbd5e1" font-family="monospace" font-size="11">1</text>
<circle cx="60.8" cy="460.1" r="4" fill="#f59e0b"/>
<text x="68.8" y="452.1" fill="#cbd5e1" font-family="monospace" font-size="11">2</text>
<circle cx="62.5" cy="449.0" r="4" fill="#f59e0b"/>
<text x="70.5" y="441.0" fill="#cbd5e1" font-family="monospace" font-size="11">4</text>
<circle cx="65.7" cy="376.9" r="4" fill="#f59e0b"/>
<text x="73.7" y="368.9" fill="#cbd5e1" font-family="monospace" font-size="11">8</text>
<circle cx="72.3" cy="323.6" r="4" fill="#f59e0b"/>
<text x="80.3" y="315.6" fill="#cbd5e1" font-family="monospace" font-size="11">16</text>
<circle cx="85.5" cy="229.8" r="4" fill="#f59e0b"/>
<text x="93.5" y="221.8" fill="#cbd5e1" font-family="monospace" font-size="11">32</text>
<circle cx="111.7" cy="188.5" r="4" fill="#f59e0b"/>
<text x="119.7" y="180.5" fill="#cbd5e1" font-family="monospace" font-size="11">64</text>
<circle cx="164.3" cy="60.0" r="4" fill="#f59e0b"/>
<text x="172.3" y="52.0" fill="#cbd5e1" font-family="monospace" font-size="11">128</text>
<circle cx="269.4" cy="319.2" r="4" fill="#f59e0b"/>
<text x="277.4" y="311.2" fill="#cbd5e1" font-family="monospace" font-size="11">256</text>
<circle cx="479.6" cy="312.2" r="4" fill="#f59e0b"/>
<text x="487.6" y="304.2" fill="#cbd5e1" font-family="monospace" font-size="11">512</text>
<circle cx="900.0" cy="318.0" r="4" fill="#f59e0b"/>
<text x="908.0" y="310.0" fill="#cbd5e1" font-family="monospace" font-size="11">1024</text>
</svg>