<svg xmlns="http://www.w3.org/2000/svg" width="960" height="540" viewBox="0 0 960 540">
<rect width="100%" height="100%" fill="#0f172a"/>
<text x="60" y="28" fill="#e2e8f0" font-family="monospace" font-size="20">Routing miss sweep</text>
<text x="60" y="48" fill="#94a3b8" font-family="monospace" font-size="12">best route_count=2 mean_time_ns=24.834</text>
<line x1="60" y1="480" x2="900" y2="480" stroke="#334155"/>
<line x1="60" y1="60" x2="60" y2="480" stroke="#334155"/>
<polyline fill="none" stroke="#38bdf8" stroke-width="3" points="60.0,476.0 116.0,480.0 172.0,422.5 228.0,367.0 284.0,348.5 340.0,269.1 396.0,270.6 452.0,215.2 900.0,60.0"/>
<circle cx="60.0" cy="476.0" r="4" fill="#f59e0b"/>
<text x="68.0" y="468.0" fill="#cbd5e1" font-family="monospace" font-size="11">1</text>
<circle cx="116.0" cy="480.0" r="4" fill="#f59e0b"/>
<text x="124.0" y="472.0" fill="#cbd5e1" font-family="monospace" font-size="11">2</text>
<circle cx="172.0" cy="422.5" r="4" fill="#f59e0b"/>
<text x="180.0" y="414.5" fill="#cbd5e1" font-family="monospace" font-size="11">3</text>
<circle cx="228.0" cy="367.0" r="4" fill="#f59e0b"/>
<text x="236.0" y="359.0" fill="#cbd5e1" font-family="monospace" font-size="11">4</text>
<circle cx="284.0" cy="348.5" r="4" fill="#f59e0b"/>
<text x="292.0" y="340.5" fill="#cbd5e1" font-family="monospace" font-size="11">5</text>
<circle cx="340.0" cy="269.1" r="4" fill="#f59e0b"/>
<text x="348.0" y="261.1" fill="#cbd5e1" font-family="monospace" font-size="11">6</text>
<circle cx="396.0" cy="270.6" r="4" fill="#f59e0b"/>
<text x="404.0" y="262.6" fill="#cbd5e1" font-family="monospace" font-size="11">7</text>
<circle cx="452.0" cy="215.2" r="4" fill="#f59e0b"/>
<text x="460.0" y="207.2" fill="#cbd5e1" font-family="monospace" font-size="11">8</text>
<circle cx="900.0" cy="60.0" r="4" fill="#f59e0b"/>
<text x="908.0" y="52.0" fill="#cbd5e1" font-family="monospace" font-size="11">16</text>
</svg>